<svg width="500" height="420" viewBox="0 0 500 420" fill="none" xmlns="http://www.w3.org/2000/svg">
<path d="M493.837 420H6.16254C2.75894 420 0 417.409 0 414.212C0 411.016 2.75894 408.424 6.16254 408.424H493.837C497.241 408.424 500 411.016 500 414.212C500 417.409 497.241 420 493.837 420Z" fill="#B6B9D1"/>
<path d="M361.071 260.786H57.7383V272.067H361.071V260.786Z" fill="#C46C3B"/>
<path d="M96.446 271.097H83.0039V414.212H96.446V271.097Z" fill="#C46C3B"/>
<path d="M336.993 271.097H323.551V414.212H336.993V271.097Z" fill="#C46C3B"/>
<path d="M96.446 271.097H83.0039V285.407H96.446V271.097Z" fill="#AA5327"/>
<path d="M336.993 271.097H323.551V285.407H336.993V271.097Z" fill="#AA5327"/>
<path d="M273.207 255.368H240.199L242.407 235.029H270.999L273.207 255.368Z" fill="#171923"/>
<path d="M282.321 260.349H231.25C231.25 257.134 234.025 254.527 237.449 254.527H276.122C279.545 254.528 282.321 257.134 282.321 260.349Z" fill="#2A2B3D"/>
<path d="M311.975 236.78H201.594C195.598 236.78 190.738 232.215 190.738 226.584V164.03C190.738 158.399 195.599 153.835 201.594 153.835H311.975C317.971 153.835 322.831 158.4 322.831 164.03V226.584C322.831 232.215 317.971 236.78 311.975 236.78Z" fill="#2A2B3D"/>
<path d="M317.211 158.577H196.355V226.001H317.211V158.577Z" fill="#D0E6EF"/>
<path d="M260.202 231.819C260.202 233.592 258.672 235.029 256.784 235.029C254.897 235.029 253.367 233.592 253.367 231.819C253.367 230.047 254.897 228.61 256.784 228.61C258.672 228.61 260.202 230.047 260.202 231.819Z" fill="#171923"/>
<path d="M311.55 162.779H202.02V168.064H311.55V162.779Z" fill="white"/>
<path d="M206.541 165.543C206.541 166.164 206.004 166.668 205.343 166.668C204.681 166.668 204.145 166.164 204.145 165.543C204.145 164.921 204.681 164.417 205.343 164.417C206.004 164.417 206.541 164.921 206.541 165.543Z" fill="#D72F2F"/>
<path d="M211.013 165.543C211.013 166.164 210.477 166.668 209.815 166.668C209.153 166.668 208.617 166.164 208.617 165.543C208.617 164.921 209.153 164.417 209.815 164.417C210.477 164.417 211.013 164.921 211.013 165.543Z" fill="#FFCD29"/>
<path d="M215.482 165.543C215.482 166.164 214.946 166.668 214.284 166.668C213.622 166.668 213.086 166.164 213.086 165.543C213.086 164.921 213.622 164.417 214.284 164.417C214.946 164.417 215.482 164.921 215.482 165.543Z" fill="#4BBF6C"/>
<path fill-rule="evenodd" clip-rule="evenodd" d="M306.043 164.258C306.043 164.105 306.17 163.981 306.327 163.981H309.974C310.131 163.981 310.258 164.105 310.258 164.258C310.258 164.41 310.131 164.534 309.974 164.534H306.327C306.17 164.534 306.043 164.41 306.043 164.258Z" fill="#61648A"/>
<path fill-rule="evenodd" clip-rule="evenodd" d="M306.043 165.42C306.043 165.268 306.17 165.144 306.327 165.144H309.974C310.131 165.144 310.258 165.268 310.258 165.42C310.258 165.573 310.131 165.697 309.974 165.697H306.327C306.17 165.697 306.043 165.573 306.043 165.42Z" fill="#61648A"/>
<path fill-rule="evenodd" clip-rule="evenodd" d="M306.043 166.584C306.043 166.431 306.17 166.308 306.327 166.308H309.974C310.131 166.308 310.258 166.431 310.258 166.584C310.258 166.737 310.131 166.86 309.974 166.86H306.327C306.17 166.86 306.043 166.737 306.043 166.584Z" fill="#61648A"/>
<path fill-rule="evenodd" clip-rule="evenodd" d="M276.047 174.021C276.047 173.716 276.301 173.469 276.615 173.469H285.104C285.418 173.469 285.672 173.716 285.672 174.021C285.672 174.327 285.418 174.574 285.104 174.574H276.615C276.301 174.574 276.047 174.327 276.047 174.021Z" fill="#4BBF6C"/>
<path fill-rule="evenodd" clip-rule="evenodd" d="M286.227 174.021C286.227 173.716 286.481 173.469 286.795 173.469H290.773C291.087 173.469 291.342 173.716 291.342 174.021C291.342 174.327 291.087 174.574 290.773 174.574H286.795C286.481 174.574 286.227 174.327 286.227 174.021Z" fill="#2D292A"/>
<path fill-rule="evenodd" clip-rule="evenodd" d="M291.676 174.021C291.676 173.716 291.93 173.469 292.244 173.469H304.803C305.117 173.469 305.371 173.716 305.371 174.021C305.371 174.327 305.117 174.574 304.803 174.574H292.244C291.93 174.574 291.676 174.327 291.676 174.021Z" fill="#4BBF6C"/>
<path fill-rule="evenodd" clip-rule="evenodd" d="M271.797 179.052C271.797 178.746 272.051 178.499 272.365 178.499H284.828C285.142 178.499 285.396 178.746 285.396 179.052C285.396 179.357 285.142 179.604 284.828 179.604H272.365C272.051 179.604 271.797 179.357 271.797 179.052Z" fill="#FFCD29"/>
<path fill-rule="evenodd" clip-rule="evenodd" d="M285.957 179.052C285.957 178.746 286.211 178.499 286.525 178.499H294.518C294.832 178.499 295.086 178.746 295.086 179.052C295.086 179.357 294.832 179.604 294.518 179.604H286.525C286.211 179.604 285.957 179.357 285.957 179.052Z" fill="#D72F2F"/>
<path fill-rule="evenodd" clip-rule="evenodd" d="M295.418 179.052C295.418 178.746 295.672 178.499 295.986 178.499H301.324C301.638 178.499 301.892 178.746 301.892 179.052C301.892 179.357 301.638 179.604 301.324 179.604H295.986C295.672 179.604 295.418 179.357 295.418 179.052Z" fill="#4BBF6C"/>
<path fill-rule="evenodd" clip-rule="evenodd" d="M302.426 179.052C302.426 178.746 302.68 178.499 302.994 178.499H308.332C308.645 178.499 308.9 178.746 308.9 179.052C308.9 179.357 308.645 179.604 308.332 179.604H302.994C302.68 179.604 302.426 179.357 302.426 179.052Z" fill="#D72F2F"/>
<path fill-rule="evenodd" clip-rule="evenodd" d="M272.918 184.082C272.918 183.777 273.172 183.529 273.486 183.529H280.696C281.01 183.529 281.264 183.777 281.264 184.082C281.264 184.387 281.01 184.635 280.696 184.635H273.486C273.172 184.635 272.918 184.387 272.918 184.082Z" fill="#2D292A"/>
<path fill-rule="evenodd" clip-rule="evenodd" d="M281.82 184.082C281.82 183.777 282.075 183.529 282.388 183.529H288.05C288.364 183.529 288.618 183.777 288.618 184.082C288.618 184.387 288.364 184.635 288.05 184.635H282.388C282.075 184.635 281.82 184.387 281.82 184.082Z" fill="#D72F2F"/>
<path fill-rule="evenodd" clip-rule="evenodd" d="M288.953 184.082C288.953 183.777 289.208 183.529 289.521 183.529H299.771C300.085 183.529 300.339 183.777 300.339 184.082C300.339 184.387 300.085 184.635 299.771 184.635H289.521C289.208 184.635 288.953 184.387 288.953 184.082Z" fill="#FFCD29"/>
<path fill-rule="evenodd" clip-rule="evenodd" d="M300.578 184.082C300.578 183.777 300.833 183.529 301.146 183.529H304.329C304.642 183.529 304.897 183.777 304.897 184.082C304.897 184.387 304.642 184.635 304.329 184.635H301.146C300.833 184.635 300.578 184.387 300.578 184.082Z" fill="#2D292A"/>
<path fill-rule="evenodd" clip-rule="evenodd" d="M269.512 194.143C269.512 193.838 269.766 193.591 270.08 193.591H271.927C272.241 193.591 272.495 193.838 272.495 194.143C272.495 194.449 272.241 194.696 271.927 194.696H270.08C269.766 194.696 269.512 194.449 269.512 194.143Z" fill="#FFCD29"/>
<path fill-rule="evenodd" clip-rule="evenodd" d="M273.051 194.143C273.051 193.838 273.305 193.591 273.619 193.591H284.094C284.408 193.591 284.663 193.838 284.663 194.143C284.663 194.449 284.408 194.696 284.094 194.696H273.619C273.305 194.696 273.051 194.449 273.051 194.143Z" fill="#4BBF6C"/>
<path fill-rule="evenodd" clip-rule="evenodd" d="M284.996 194.143C284.996 193.838 285.25 193.591 285.564 193.591H293.097C293.411 193.591 293.665 193.838 293.665 194.143C293.665 194.449 293.411 194.696 293.097 194.696H285.564C285.25 194.696 284.996 194.449 284.996 194.143Z" fill="#D72F2F"/>
<path fill-rule="evenodd" clip-rule="evenodd" d="M293.66 194.143C293.66 193.838 293.915 193.591 294.228 193.591H303.87C304.184 193.591 304.438 193.838 304.438 194.143C304.438 194.449 304.184 194.696 303.87 194.696H294.228C293.915 194.696 293.66 194.449 293.66 194.143Z" fill="#4BBF6C"/>
<path fill-rule="evenodd" clip-rule="evenodd" d="M290.82 204.205C290.82 203.9 291.075 203.652 291.388 203.652H305.371C305.685 203.652 305.94 203.9 305.94 204.205C305.94 204.51 305.685 204.758 305.371 204.758H291.388C291.075 204.758 290.82 204.51 290.82 204.205Z" fill="#FFCD29"/>
<path fill-rule="evenodd" clip-rule="evenodd" d="M272.918 199.175C272.918 198.869 273.172 198.622 273.486 198.622H280.696C281.01 198.622 281.264 198.869 281.264 199.175C281.264 199.48 281.01 199.727 280.696 199.727H273.486C273.172 199.727 272.918 199.48 272.918 199.175Z" fill="#4BBF6C"/>
<path fill-rule="evenodd" clip-rule="evenodd" d="M281.82 199.175C281.82 198.869 282.075 198.622 282.388 198.622H286.238C286.552 198.622 286.806 198.869 286.806 199.175C286.806 199.48 286.552 199.727 286.238 199.727H282.388C282.075 199.727 281.82 199.48 281.82 199.175Z" fill="#D72F2F"/>
<path fill-rule="evenodd" clip-rule="evenodd" d="M287.141 199.175C287.141 198.869 287.395 198.622 287.709 198.622H295.544C295.858 198.622 296.112 198.869 296.112 199.175C296.112 199.48 295.858 199.727 295.544 199.727H287.709C287.395 199.727 287.141 199.48 287.141 199.175Z" fill="#2D292A"/>
<path fill-rule="evenodd" clip-rule="evenodd" d="M296.805 199.175C296.805 198.869 297.059 198.622 297.373 198.622H305.207C305.521 198.622 305.775 198.869 305.775 199.175C305.775 199.48 305.521 199.727 305.207 199.727H297.373C297.059 199.727 296.805 199.48 296.805 199.175Z" fill="#D72F2F"/>
<path fill-rule="evenodd" clip-rule="evenodd" d="M273.262 204.205C273.262 203.9 273.516 203.652 273.83 203.652H279.327C279.641 203.652 279.895 203.9 279.895 204.205C279.895 204.51 279.641 204.758 279.327 204.758H273.83C273.516 204.758 273.262 204.51 273.262 204.205Z" fill="#FFCD29"/>
<path fill-rule="evenodd" clip-rule="evenodd" d="M280.453 204.205C280.453 203.9 280.708 203.652 281.021 203.652H283.364C283.678 203.652 283.932 203.9 283.932 204.205C283.932 204.51 283.678 204.758 283.364 204.758H281.021C280.708 204.758 280.453 204.51 280.453 204.205Z" fill="#2D292A"/>
<path fill-rule="evenodd" clip-rule="evenodd" d="M284.262 204.205C284.262 203.9 284.516 203.652 284.83 203.652H289.652C289.966 203.652 290.22 203.9 290.22 204.205C290.22 204.51 289.966 204.758 289.652 204.758H284.83C284.516 204.758 284.262 204.51 284.262 204.205Z" fill="#4BBF6C"/>
<path fill-rule="evenodd" clip-rule="evenodd" d="M281.82 213.656C281.82 213.35 282.075 213.103 282.388 213.103H287.708C288.022 213.103 288.276 213.35 288.276 213.656C288.276 213.961 288.022 214.208 287.708 214.208H282.388C282.075 214.208 281.82 213.961 281.82 213.656Z" fill="#D72F2F"/>
<path fill-rule="evenodd" clip-rule="evenodd" d="M288.836 213.656C288.836 213.35 289.09 213.103 289.404 213.103H295.545C295.859 213.103 296.113 213.35 296.113 213.656C296.113 213.961 295.859 214.208 295.545 214.208H289.404C289.09 214.208 288.836 213.961 288.836 213.656Z" fill="#2D292A"/>
<path fill-rule="evenodd" clip-rule="evenodd" d="M296.445 213.656C296.445 213.35 296.7 213.103 297.013 213.103H306.834C307.148 213.103 307.402 213.35 307.402 213.656C307.402 213.961 307.148 214.208 306.834 214.208H297.013C296.7 214.208 296.445 213.961 296.445 213.656Z" fill="#FFCD29"/>
<path fill-rule="evenodd" clip-rule="evenodd" d="M276.945 218.685C276.945 218.38 277.2 218.133 277.513 218.133H281.542C281.856 218.133 282.111 218.38 282.111 218.685C282.111 218.991 281.856 219.238 281.542 219.238H277.513C277.2 219.238 276.945 218.991 276.945 218.685Z" fill="#D72F2F"/>
<path fill-rule="evenodd" clip-rule="evenodd" d="M282.668 218.685C282.668 218.38 282.922 218.133 283.236 218.133H289.65C289.964 218.133 290.218 218.38 290.218 218.685C290.218 218.991 289.964 219.238 289.65 219.238H283.236C282.922 219.238 282.668 218.991 282.668 218.685Z" fill="#2D292A"/>
<path fill-rule="evenodd" clip-rule="evenodd" d="M290.551 218.685C290.551 218.38 290.805 218.133 291.119 218.133H296.941C297.255 218.133 297.51 218.38 297.51 218.685C297.51 218.991 297.255 219.238 296.941 219.238H291.119C290.805 219.238 290.551 218.991 290.551 218.685Z" fill="#FFCD29"/>
<path fill-rule="evenodd" clip-rule="evenodd" d="M298.039 218.685C298.039 218.38 298.293 218.133 298.607 218.133H307.631C307.945 218.133 308.2 218.38 308.2 218.685C308.2 218.991 307.945 219.238 307.631 219.238H298.607C298.293 219.238 298.039 218.991 298.039 218.685Z" fill="#4BBF6C"/>
<path opacity="0.21" fill-rule="evenodd" clip-rule="evenodd" d="M270.891 174.021C270.891 173.716 271.145 173.469 271.459 173.469H273.27C273.584 173.469 273.839 173.716 273.839 174.021C273.839 174.327 273.584 174.574 273.27 174.574H271.459C271.145 174.574 270.891 174.327 270.891 174.021Z" fill="#383952"/>
<path opacity="0.21" fill-rule="evenodd" clip-rule="evenodd" d="M266.141 179.052C266.141 178.746 266.395 178.499 266.709 178.499H268.52C268.834 178.499 269.089 178.746 269.089 179.052C269.089 179.357 268.834 179.604 268.52 179.604H266.709C266.395 179.604 266.141 179.357 266.141 179.052Z" fill="#383952"/>
<path opacity="0.21" fill-rule="evenodd" clip-rule="evenodd" d="M268.336 184.082C268.336 183.777 268.59 183.529 268.904 183.529H270.716C271.03 183.529 271.284 183.777 271.284 184.082C271.284 184.387 271.03 184.635 270.716 184.635H268.904C268.59 184.635 268.336 184.387 268.336 184.082Z" fill="#383952"/>
<path opacity="0.21" fill-rule="evenodd" clip-rule="evenodd" d="M264.02 189.113C264.02 188.808 264.274 188.561 264.588 188.561H266.399C266.713 188.561 266.968 188.808 266.968 189.113C266.968 189.418 266.713 189.666 266.399 189.666H264.588C264.274 189.666 264.02 189.418 264.02 189.113Z" fill="#383952"/>
<path opacity="0.21" fill-rule="evenodd" clip-rule="evenodd" d="M264.02 194.143C264.02 193.838 264.274 193.591 264.588 193.591H266.399C266.713 193.591 266.968 193.838 266.968 194.143C266.968 194.449 266.713 194.696 266.399 194.696H264.588C264.274 194.696 264.02 194.449 264.02 194.143Z" fill="#383952"/>
<path opacity="0.21" fill-rule="evenodd" clip-rule="evenodd" d="M268.113 199.175C268.113 198.869 268.368 198.622 268.681 198.622H270.493C270.807 198.622 271.061 198.869 271.061 199.175C271.061 199.48 270.807 199.727 270.493 199.727H268.681C268.368 199.727 268.113 199.48 268.113 199.175Z" fill="#383952"/>
<path opacity="0.21" fill-rule="evenodd" clip-rule="evenodd" d="M268.605 204.205C268.605 203.9 268.86 203.652 269.174 203.652H270.985C271.299 203.652 271.553 203.9 271.553 204.205C271.553 204.51 271.299 204.758 270.985 204.758H269.174C268.86 204.758 268.605 204.51 268.605 204.205Z" fill="#383952"/>
<path opacity="0.21" fill-rule="evenodd" clip-rule="evenodd" d="M264.02 209.236C264.02 208.931 264.274 208.684 264.588 208.684H266.399C266.713 208.684 266.968 208.931 266.968 209.236C266.968 209.541 266.713 209.789 266.399 209.789H264.588C264.274 209.789 264.02 209.541 264.02 209.236Z" fill="#383952"/>
<path opacity="0.21" fill-rule="evenodd" clip-rule="evenodd" d="M275.617 213.656C275.617 213.35 275.872 213.103 276.185 213.103H277.997C278.311 213.103 278.565 213.35 278.565 213.656C278.565 213.961 278.311 214.208 277.997 214.208H276.185C275.872 214.208 275.617 213.961 275.617 213.656Z" fill="#383952"/>
<path opacity="0.21" fill-rule="evenodd" clip-rule="evenodd" d="M271.355 218.685C271.355 218.38 271.61 218.133 271.924 218.133H273.735C274.049 218.133 274.303 218.38 274.303 218.685C274.303 218.991 274.049 219.238 273.735 219.238H271.924C271.61 219.238 271.355 218.991 271.355 218.685Z" fill="#383952"/>
<path opacity="0.33" d="M229.442 172.774H202.02V197.115H229.442V172.774Z" fill="#61648A"/>
<path d="M256.866 172.774H232.871V174.98H256.866V172.774Z" fill="#61648A"/>
<path d="M256.866 178.308H232.871V180.514H256.866V178.308Z" fill="#61648A"/>
<path opacity="0.33" d="M256.866 183.841H232.871V186.047H256.866V183.841Z" fill="#61648A"/>
<path opacity="0.33" d="M256.866 189.375H232.871V191.581H256.866V189.375Z" fill="#61648A"/>
<path opacity="0.33" d="M256.866 194.908H232.871V197.115H256.866V194.908Z" fill="#61648A"/>
<path d="M229.443 200.825H202.102V218.687H229.443V200.825Z" fill="#61648A"/>
<path d="M256.866 200.825H232.871V209.236H256.866V200.825Z" fill="#D72F2F"/>
<path d="M256.866 213.478H232.871V218.686H256.866V213.478Z" fill="#61648A"/>
<path d="M251.158 394.672C249.788 406.508 247.991 411.77 251.158 413.461C254.326 415.152 272.257 413.461 276.145 413.461C280.034 413.461 280.034 405.767 273.553 402.556C267.072 399.345 265.776 387.866 265.776 387.866L251.158 394.672Z" fill="#2A2B3D"/>
<path d="M169.76 394.672C168.39 406.508 166.593 411.77 169.76 413.461C172.927 415.152 190.858 413.461 194.747 413.461C198.635 413.461 198.635 405.767 192.154 402.556C185.674 399.345 184.377 387.866 184.377 387.866L169.76 394.672Z" fill="#2A2B3D"/>
<path d="M191.07 349.029C190.716 361.728 189.735 373.655 188.035 381.06H163.024L153.713 329.815L152.755 324.553C147.449 324.553 143.125 320.524 143.125 315.552V315.391C143.296 305.243 145.167 289.49 154.467 283.435C164.827 276.695 185.604 290.894 187.453 294.398C189.256 297.806 190.499 309.508 190.99 323.557C191.275 331.648 191.309 340.51 191.07 349.029Z" fill="#55597C"/>
<path opacity="0.36" d="M191.067 349.03C182.236 352.609 175.025 374.716 173.119 381.06H163.022L153.711 329.815C154.841 328.069 156.096 326.643 157.431 325.861C161.972 323.193 188.192 323.514 190.987 323.557C191.273 331.648 191.307 340.51 191.067 349.03Z" fill="#383952"/>
<path d="M273.249 251.675C281.221 248.852 286.772 252.134 288.211 254.451C289.649 256.768 290.472 258.892 289.855 260.05C289.239 261.209 287.183 260.05 287.183 260.05C287.183 260.05 280.193 261.273 274.847 260.566C269.503 259.858 273.249 251.675 273.249 251.675Z" fill="#F4B8AB"/>
<path opacity="0.53" d="M274.601 253.851C278.926 256.036 286.484 259.122 286.448 259.648C286.411 260.174 279.671 261.614 275.379 260.492C271.086 259.37 274.601 253.851 274.601 253.851Z" fill="#DD6595"/>
<path d="M197.52 162.475C200.539 174.088 198.34 187.781 187.741 188.876L187.785 192.962C187.817 195.99 185.23 198.467 182.007 198.497C178.783 198.527 176.145 196.098 176.112 193.071L176.069 188.985C176.069 188.985 167.545 185.675 165.794 180.708C164.044 175.741 165.786 179.911 165.786 179.911L164.816 159.589L197.762 159.281L197.52 162.475Z" fill="#F4B8AB"/>
<path opacity="0.53" d="M187.742 188.877C183.045 189.318 177.594 189.208 177.594 189.208L187.785 192.964L187.742 188.877Z" fill="#DD6595"/>
<path d="M198.034 164.722C207.389 159.175 205.619 147.73 198.989 151.789C198.989 151.789 188.535 141.69 172.333 147.2C156.132 152.71 154.097 165.453 157.518 173.386C160.939 181.319 181.928 185.446 181.928 185.446L191.631 175.784L198.034 164.722Z" fill="#6D3744"/>
<path d="M198.99 151.789C200.609 147.366 196.542 141.742 192.758 141.742C188.973 141.742 189.182 147.848 189.182 147.848L195.646 155.883L198.99 151.789Z" fill="#6D3744"/>
<path d="M192.003 172.3C191.894 173.678 190.774 186.149 187.74 188.874L174.682 189.041C174.682 189.041 160.269 186.284 157.859 175.035C157.579 173.717 157.384 172.499 157.273 171.368C161.528 179.495 179.504 180.864 189.201 170.604C189.201 170.604 190.429 171.321 192.003 172.3Z" fill="#542633"/>
<path d="M195.66 169.865C192.943 165.319 189.824 167.265 189.224 169.925C188.623 172.585 194.343 178.992 195.732 176.708C197.122 174.423 195.66 169.865 195.66 169.865Z" fill="#F4B8AB"/>
<path opacity="0.53" d="M195.389 171.095C192.985 168.771 191.826 169.746 192.011 172.181C192.196 174.617 195.343 176.335 196.348 175.627C197.353 174.919 195.389 171.095 195.389 171.095Z" fill="#DD6595"/>
<path d="M275.377 260.492C274.111 262.86 241.25 267.608 232.829 266.032C224.397 264.446 217.665 252.969 217.665 252.969V283.435H154.465C154.465 283.435 148.327 255.434 144.904 236.713C143.5 229.008 142.542 222.878 142.667 220.917C142.918 216.962 143.751 214.787 144.402 213.662V213.651C144.847 212.88 145.2 212.612 145.2 212.612C145.2 212.612 152.777 199.559 170.896 197.577L171.318 192.433C186.06 189.668 196.591 192.433 197.013 194.812C197.435 197.18 197.013 199.516 197.013 199.516C197.013 199.516 214.71 195.198 227.352 212.215C239.983 229.233 245.049 242.671 245.049 242.671C245.049 242.671 269.056 247.429 272.011 250.204C273.221 251.34 274.225 252.883 274.886 254.459C275.845 256.731 276.119 259.088 275.377 260.492Z" fill="#D72F2F"/>
<path opacity="0.38" d="M275.378 260.492C274.111 262.86 241.25 267.607 232.83 266.032C224.398 264.446 217.666 252.969 217.666 252.969V283.435H154.466C154.466 283.435 148.327 255.434 144.904 236.712L144.402 213.662V213.651C144.402 213.651 159.829 214.133 183.459 214.283C207.089 214.433 208.378 228.171 214.802 236.477C221.237 244.782 225.413 258.82 236.835 258.97C248.245 259.12 272.194 260.931 274.602 254.523L274.887 254.458C275.846 256.73 276.119 259.088 275.378 260.492Z" fill="#8E253E"/>
<path d="M269.809 379.26C269.683 379.881 269.558 380.482 269.421 381.06H244.421L234.152 324.553H189.185L176.418 309.433L154.465 283.435H217.665C218.623 283.435 219.616 283.446 220.643 283.467C237.872 283.757 264.708 286.575 268.85 294.398C270.333 297.216 271.44 305.725 272.045 316.538C273.197 336.641 272.661 364.739 269.809 379.26Z" fill="#61648A"/>
<path opacity="0.36" d="M269.809 379.26L267.618 381.06H244.422L234.153 324.553H189.186L176.418 309.433L177.593 292.105L186.162 283.435H217.665C218.624 283.435 219.616 283.446 220.643 283.467C217.083 312.047 239.207 319.506 253.367 318.777C260.886 318.391 267.458 317.406 272.045 316.538C273.198 336.641 272.661 364.739 269.809 379.26Z" fill="#383952"/>
<path d="M269.238 394.672H244.337L242.055 381.061H271.52L269.238 394.672Z" fill="#7D819E"/>
<path d="M187.843 394.672H162.942L160.66 381.061H190.125L187.843 394.672Z" fill="#7D819E"/>
<path d="M145.684 403.128H143.418V411.126H145.684V403.128Z" fill="#55597C"/>
<path d="M161.793 403.128H159.527V411.126H161.793V403.128Z" fill="#55597C"/>
<path d="M177.895 403.128H175.629V411.126H177.895V403.128Z" fill="#55597C"/>
<path d="M201.19 324.554H135.684C131.243 324.554 127.645 321.173 127.645 317.003V245.632C127.645 231.244 140.063 219.58 155.383 219.58H181.491C196.811 219.58 209.229 231.244 209.229 245.632V317.003C209.229 321.173 205.631 324.554 201.19 324.554Z" fill="#FFCD29"/>
<path d="M201.19 324.554H135.684C131.243 324.554 127.645 321.173 127.645 317.003V245.632C127.645 231.244 140.063 219.58 155.383 219.58H181.491C196.811 219.58 209.229 231.244 209.229 245.632V317.003C209.229 321.173 205.631 324.554 201.19 324.554Z" fill="#EDAA00"/>
<path d="M187.229 324.554H121.723C117.282 324.554 113.684 321.173 113.684 317.003V245.632C113.684 231.244 126.102 219.58 141.422 219.58H167.53C182.85 219.58 195.269 231.244 195.269 245.632V317.003C195.27 321.173 191.67 324.554 187.229 324.554Z" fill="#FFCD29"/>
<path d="M214.277 339.897H143.403C138.891 339.897 135.234 336.462 135.234 332.225C135.234 327.988 138.891 324.553 143.403 324.553H214.277C218.789 324.553 222.446 327.988 222.446 332.225C222.446 336.462 218.789 339.897 214.277 339.897Z" fill="#EDAA00"/>
<path d="M193.488 339.897H122.614C118.102 339.897 114.445 336.462 114.445 332.225C114.445 327.988 118.102 324.553 122.614 324.553H193.488C198 324.553 201.657 327.988 201.657 332.225C201.655 336.462 197.998 339.897 193.488 339.897Z" fill="#FFCD29"/>
<path d="M164.124 346.108H157.535V400.695H164.124V346.108Z" fill="#14161E"/>
<path d="M170.151 346.108H150.728C149.363 346.108 148.258 345.069 148.258 343.788V339.898H172.623V343.788C172.623 345.07 171.516 346.108 170.151 346.108Z" fill="#1F202D"/>
<path d="M179.866 399.322H141.016V404.752H179.866V399.322Z" fill="#1F202D"/>
<path d="M157.432 280.054H148.805V339.897H157.432V280.054Z" fill="#2A2B3D"/>
<path d="M158.535 268.833H147.707C145.175 268.833 143.121 270.761 143.121 273.14V285.404C143.121 287.783 145.174 289.71 147.707 289.71H158.535C161.067 289.71 163.121 287.783 163.121 285.404V273.14C163.121 270.762 161.067 268.833 158.535 268.833Z" fill="#1F202D"/>
<path d="M153.541 274.045H152.699C150.167 274.045 148.113 275.973 148.113 278.352V280.192C148.113 282.571 150.166 284.499 152.699 284.499H153.541C156.073 284.499 158.127 282.571 158.127 280.192V278.352C158.127 275.973 156.073 274.045 153.541 274.045Z" fill="#2A2B3D"/>
<path d="M148.09 411.667C148.09 413.501 146.506 414.989 144.553 414.989C142.599 414.989 141.016 413.501 141.016 411.667C141.016 409.832 142.599 408.345 144.553 408.345C146.506 408.345 148.09 409.831 148.09 411.667Z" fill="#14161E"/>
<path d="M164.195 411.667C164.195 413.501 162.612 414.989 160.658 414.989C158.705 414.989 157.121 413.501 157.121 411.667C157.121 409.832 158.705 408.345 160.658 408.345C162.612 408.345 164.195 409.831 164.195 411.667Z" fill="#14161E"/>
<path d="M180.301 411.667C180.301 413.501 178.717 414.989 176.764 414.989C174.81 414.989 173.227 413.501 173.227 411.667C173.227 409.832 174.81 408.345 176.764 408.345C178.717 408.345 180.301 409.831 180.301 411.667Z" fill="#14161E"/>
<path fill-rule="evenodd" clip-rule="evenodd" d="M60.5383 191.413L97.0133 158.864L93.9403 155.606L54.9336 190.415L90.2164 258.625L94.2769 256.638L60.5383 191.413Z" fill="#61648A"/>
<path d="M64.3404 190.914C64.3404 194.338 61.3852 197.114 57.7385 197.114C54.0919 197.114 51.1367 194.339 51.1367 190.914C51.1367 187.489 54.0919 184.713 57.7385 184.713C61.3852 184.713 64.3404 187.49 64.3404 190.914Z" fill="#61648A"/>
<path fill-rule="evenodd" clip-rule="evenodd" d="M57.7378 186.924C55.2708 186.924 53.4087 188.782 53.4087 190.914C53.4087 193.046 55.2708 194.904 57.7378 194.904C60.2046 194.904 62.0669 193.045 62.0669 190.914C62.0669 188.783 60.2046 186.924 57.7378 186.924ZM48.8633 190.914C48.8633 186.196 52.9116 182.503 57.7378 182.503C62.5643 182.503 66.6124 186.197 66.6124 190.914C66.6124 195.631 62.5643 199.325 57.7378 199.325C52.9116 199.325 48.8633 195.632 48.8633 190.914Z" fill="#2A2B3D"/>
<path d="M93.7493 145.408C96.7307 143.472 100.829 144.27 102.746 147.16L104.1 149.201L93.8292 155.58L92.5741 154.228C90.0867 151.547 90.6355 147.431 93.7493 145.408Z" fill="#61648A"/>
<path d="M123.199 176.511C123.199 179.402 120.705 181.743 117.629 181.743C114.553 181.743 112.059 179.401 112.059 176.511C112.059 173.622 114.553 171.28 117.629 171.28C120.705 171.28 123.199 173.622 123.199 176.511Z" fill="#FFCD29"/>
<path d="M93.8281 155.58L104.226 180.501C104.935 182.199 106.994 183.015 108.776 182.289C113.242 180.471 121.148 176.793 125.283 172.12C126.442 170.809 126.311 168.877 124.992 167.709L104.099 149.2L93.8281 155.58Z" fill="#2A2B3D"/>
<path d="M109.082 255.081H75.4141V260.182H109.082V255.081Z" fill="#2A2B3D"/>
<path d="M309.977 21.7988H204.148V121.193H309.977V21.7988Z" fill="#D0E6EF"/>
<path d="M279.016 25.9495C281.45 16.1907 275 6.42614 264.61 4.13979C254.219 1.85344 243.823 7.91109 241.388 17.6699C238.954 27.4288 245.404 37.1933 255.794 39.4796C266.185 41.766 276.582 35.7084 279.016 25.9495Z" fill="#61648A"/>
<path d="M294.642 57.7559H233.516V67.7938H294.642V57.7559Z" fill="#61648A"/>
<path d="M233.516 57.7559H222.828V67.7938H233.516V57.7559Z" fill="white"/>
<path d="M294.642 73.2573H233.516V83.2952H294.642V73.2573Z" fill="#61648A"/>
<path opacity="0.33" d="M294.643 88.7583H263.512V93.7767H294.643V88.7583Z" fill="#61648A"/>
<path d="M233.516 73.2573H222.828V83.2952H233.516V73.2573Z" fill="white"/>
<path d="M353.013 30.1025H300.699V55.0961H353.013V30.1025Z" fill="#D72F2F"/>
<path d="M315.599 51.6938L306.719 66.6205L330.091 53.0109L315.599 51.6938Z" fill="#D72F2F"/>
<path d="M317.506 42.6C317.506 43.8731 316.407 44.9051 315.052 44.9051C313.696 44.9051 312.598 43.8731 312.598 42.6C312.598 41.3269 313.696 40.2949 315.052 40.2949C316.407 40.2949 317.506 41.3269 317.506 42.6Z" fill="white"/>
<path d="M329.311 42.6C329.311 43.8731 328.212 44.9051 326.857 44.9051C325.501 44.9051 324.402 43.8731 324.402 42.6C324.402 41.3269 325.501 40.2949 326.857 40.2949C328.212 40.2949 329.311 41.3269 329.311 42.6Z" fill="white"/>
<path d="M338.657 44.9051C340.013 44.9051 341.112 43.873 341.112 42.6C341.112 41.3269 340.013 40.2949 338.657 40.2949C337.302 40.2949 336.203 41.3269 336.203 42.6C336.203 43.873 337.302 44.9051 338.657 44.9051Z" fill="white"/>
<path d="M213.088 86.3364H167.367V116.085H213.088V86.3364Z" fill="#FFCD29"/>
<path d="M181.174 101.286C180.992 101.374 180.794 101.452 180.581 101.518C180.376 101.585 180.16 101.648 179.932 101.707C180.388 101.81 180.802 101.951 181.174 102.128L184.9 104.023C185.097 104.112 185.234 104.223 185.31 104.355C185.394 104.488 185.435 104.636 185.435 104.799V106.949L176.309 102.305V101.097L185.435 96.4647V98.6147C185.435 98.7699 185.394 98.914 185.31 99.047C185.234 99.18 185.097 99.2908 184.9 99.3794L181.174 101.286Z" fill="white"/>
<path d="M191.465 109.132C191.321 109.501 191.089 109.779 190.77 109.963C190.458 110.155 190.139 110.251 189.813 110.251H188.48L195.054 93.7052C195.183 93.3727 195.388 93.1141 195.669 92.9294C195.95 92.7447 196.273 92.6523 196.638 92.6523H197.982L191.465 109.132Z" fill="white"/>
<path d="M210.144 101.097V102.305L201.017 106.949V104.799C201.017 104.636 201.055 104.488 201.131 104.355C201.215 104.223 201.356 104.112 201.553 104.023L205.279 102.128C205.469 102.039 205.666 101.962 205.871 101.895C206.077 101.821 206.297 101.758 206.532 101.707C206.297 101.655 206.077 101.596 205.871 101.529C205.666 101.456 205.469 101.374 205.279 101.286L201.553 99.3794C201.356 99.2908 201.215 99.18 201.131 99.047C201.055 98.914 201.017 98.7699 201.017 98.6147V96.4647L210.144 101.097Z" fill="white"/>
<path d="M250.722 23.3216V18.2112H252.088V26.8561H250.722V25.3928H250.63C250.422 25.8318 250.098 26.2051 249.658 26.5128C249.218 26.8167 248.662 26.9687 247.991 26.9687C247.436 26.9687 246.942 26.8505 246.51 26.6141C246.078 26.374 245.738 26.0138 245.491 25.5335C245.245 25.0495 245.121 24.4398 245.121 23.7043V18.2112H246.487V23.6143C246.487 24.2446 246.668 24.7474 247.031 25.1226C247.397 25.4979 247.864 25.6855 248.431 25.6855C248.77 25.6855 249.116 25.601 249.467 25.4322C249.822 25.2633 250.119 25.0044 250.358 24.6555C250.601 24.3066 250.722 23.8619 250.722 23.3216Z" fill="white"/>
<path d="M260.885 20.1473L259.658 20.485C259.581 20.2862 259.467 20.0929 259.317 19.9053C259.17 19.714 258.97 19.5564 258.715 19.4326C258.461 19.3087 258.135 19.2468 257.737 19.2468C257.193 19.2468 256.74 19.3688 256.377 19.6127C256.019 19.8528 255.839 20.1586 255.839 20.5301C255.839 20.8602 255.963 21.121 256.21 21.3124C256.456 21.5037 256.842 21.6632 257.367 21.7908L258.686 22.1059C259.481 22.2935 260.073 22.5806 260.463 22.9671C260.852 23.3498 261.047 23.8432 261.047 24.4473C261.047 24.9425 260.9 25.3853 260.607 25.7755C260.318 26.1657 259.913 26.4734 259.392 26.6985C258.871 26.9237 258.266 27.0362 257.575 27.0362C256.669 27.0362 255.918 26.8449 255.324 26.4621C254.73 26.0794 254.354 25.5204 254.196 24.7849L255.492 24.4698C255.615 24.935 255.849 25.284 256.192 25.5166C256.539 25.7492 256.993 25.8656 257.552 25.8656C258.189 25.8656 258.694 25.7342 259.068 25.4716C259.446 25.2052 259.635 24.8863 259.635 24.5148C259.635 24.2146 259.527 23.9632 259.311 23.7606C259.095 23.5543 258.763 23.4004 258.316 23.2991L256.834 22.9614C256.021 22.7738 255.423 22.483 255.041 22.0891C254.663 21.6913 254.474 21.1942 254.474 20.5976C254.474 20.1098 254.614 19.6783 254.896 19.3031C255.181 18.9279 255.569 18.6334 256.059 18.4195C256.553 18.2056 257.112 18.0987 257.737 18.0987C258.617 18.0987 259.307 18.2863 259.809 18.6615C260.314 19.0367 260.673 19.532 260.885 20.1473Z" fill="white"/>
<path d="M266.829 27.0362C265.973 27.0362 265.234 26.8524 264.613 26.4847C263.996 26.1132 263.519 25.5954 263.184 24.9313C262.852 24.2634 262.686 23.4867 262.686 22.6012C262.686 21.7157 262.852 20.9353 263.184 20.2599C263.519 19.5808 263.986 19.0517 264.584 18.6728C265.186 18.29 265.888 18.0987 266.69 18.0987C267.153 18.0987 267.61 18.1737 268.062 18.3238C268.513 18.4739 268.924 18.7178 269.294 19.0555C269.665 19.3894 269.96 19.8322 270.18 20.3837C270.4 20.9353 270.51 21.6144 270.51 22.4211V22.9839H263.658V21.8358H269.121C269.121 21.348 269.02 20.9128 268.82 20.5301C268.623 20.1473 268.341 19.8453 267.975 19.6239C267.612 19.4025 267.184 19.2919 266.69 19.2919C266.146 19.2919 265.676 19.4232 265.278 19.6858C264.885 19.9447 264.582 20.2824 264.37 20.6989C264.158 21.1154 264.052 21.5619 264.052 22.0384V22.8038C264.052 23.4567 264.167 24.0101 264.399 24.4641C264.634 24.9144 264.96 25.2577 265.377 25.4941C265.793 25.7267 266.278 25.843 266.829 25.843C267.188 25.843 267.512 25.7943 267.801 25.6967C268.095 25.5954 268.347 25.4453 268.559 25.2465C268.772 25.0438 268.936 24.7925 269.051 24.4923L270.371 24.8525C270.232 25.2877 269.998 25.6704 269.67 26.0006C269.343 26.3271 268.938 26.5822 268.455 26.7661C267.973 26.9462 267.431 27.0362 266.829 27.0362Z" fill="white"/>
<path d="M272.587 26.8561V18.2112H273.906V19.517H273.999C274.161 19.0892 274.454 18.7422 274.878 18.4758C275.303 18.2094 275.781 18.0762 276.313 18.0762C276.414 18.0762 276.539 18.078 276.69 18.0818C276.84 18.0856 276.954 18.0912 277.031 18.0987V19.4494C276.985 19.4382 276.879 19.4213 276.713 19.3988C276.551 19.3725 276.379 19.3594 276.198 19.3594C275.766 19.3594 275.38 19.4476 275.04 19.6239C274.705 19.7965 274.439 20.0367 274.242 20.3443C274.049 20.6482 273.953 20.9953 273.953 21.3855V26.8561H272.587Z" fill="white"/>
<path d="M336.488 387.866C337.858 399.702 339.23 411.77 336.062 413.461C332.895 415.152 314.964 413.461 311.076 413.461C307.187 413.461 307.187 405.767 313.668 402.556C320.149 399.345 321.445 387.866 321.445 387.866H336.488Z" fill="#D72F2F"/>
<path d="M414.625 394.672C415.995 406.508 417.792 411.77 414.625 413.461C411.457 415.152 393.527 413.461 389.638 413.461C385.75 413.461 385.75 405.767 392.23 402.556C398.711 399.346 398.743 393.408 398.743 393.408L414.625 394.672Z" fill="#D72F2F"/>
<path d="M310.432 102.688C305.136 112.662 305.782 122.831 316.367 123.25C326.953 123.668 310.432 102.688 310.432 102.688Z" fill="#542633"/>
<path d="M312.105 113.118C315.431 125.367 324.725 137.125 335.201 133.202L337.322 137.036C338.893 139.877 342.62 140.984 345.645 139.507C348.669 138.032 349.848 134.532 348.276 131.691L346.155 127.857C346.155 127.857 352.362 120.79 351.369 115.337C350.375 109.883 350.955 114.589 350.955 114.589L341.11 95.1646L310.191 110.251L312.105 113.118Z" fill="#F4B8AB"/>
<path opacity="0.53" d="M335.199 133.202C339.816 131.422 344.848 128.775 344.848 128.775L337.32 137.037L335.199 133.202Z" fill="#DD6595"/>
<path d="M351.677 112.018C351.334 118.201 349.646 123.559 348.379 124.856C345.641 127.631 336.273 130.707 336.273 130.707C332.006 130.171 324.84 127.256 319.033 122.691C312.871 117.858 308.239 111.182 310.19 103.52C313.51 90.4995 333.923 84.3055 344.854 92.3749C350.695 96.6935 352.076 104.902 351.677 112.018Z" fill="#6D3744"/>
<path d="M351.675 112.018C351.333 118.201 349.644 123.559 348.378 124.856C345.639 127.632 336.272 130.707 336.272 130.707C332.004 130.171 324.839 127.256 319.031 122.691C319.202 120.709 319.784 118.823 321.165 117.665C325.215 114.247 337.082 122.263 339.763 109.36L342.262 108.557C342.262 108.557 347.716 110.55 351.675 112.018Z" fill="#542633"/>
<path d="M317.75 119.149C317.882 113.638 321.823 113.999 323.79 116.203C325.758 118.405 323.808 127.056 321.302 125.571C318.796 124.085 317.75 119.149 317.75 119.149Z" fill="#F4B8AB"/>
<path opacity="0.53" d="M318.652 120.17C319.668 116.881 321.264 117.249 322.38 119.609C323.496 121.97 321.467 125.041 320.154 124.849C318.841 124.657 318.652 120.17 318.652 120.17Z" fill="#DD6595"/>
<path d="M343.215 96.0869C338.15 98.1562 335.9 104.741 339.765 109.362C342.459 112.584 347.244 111.108 347.244 111.108L343.215 96.0869Z" fill="#FFCD29"/>
<path d="M340.674 103.621C339.092 96.3272 347.13 90.1354 354.162 93.571C355.975 94.4562 357.445 95.8536 358.214 97.6593C360.851 103.849 360.685 111.881 368.759 112.972C368.759 112.972 359.038 122.729 349.316 116.849C343.87 113.555 341.61 107.931 340.674 103.621Z" fill="#6D3744"/>
<path d="M369.699 131.906C385.406 132.165 402.356 151.062 407.138 163.453C411.919 175.843 399.314 190.914 399.314 190.914L369.699 131.906Z" fill="#424866"/>
<path d="M274.598 201.08C267.832 192.943 264.731 192.495 262.582 194.064C260.434 195.633 252.321 200.027 250.889 201.08C249.457 202.132 251.128 203.701 253.753 203.253C256.379 202.805 256.379 202.805 256.379 202.805C256.379 202.805 255.185 208.632 258.287 211.321C261.39 214.011 271.174 210.2 271.174 210.2L274.598 201.08Z" fill="#F4B8AB"/>
<path d="M398.877 255.08C397.359 261.402 393.149 272.89 387.638 286.693C370.375 329.901 340.332 395.699 340.332 395.699L314.785 393.405L352.895 215.558L353.705 211.765C353.705 211.765 370.637 188.285 383.827 193.59C386.463 194.651 388.905 196.698 391.05 199.516C393.936 203.267 396.321 208.368 398.033 214.272C401.467 226.092 402.22 241.149 398.877 255.08Z" fill="#FFCD29"/>
<path d="M418.012 394.959L396.048 395.699L387.639 286.693L383.828 237.355V199.516H408.873C412.912 204.413 416.404 211.186 419.279 219.577C419.29 219.577 419.29 219.577 419.29 219.577C431.647 255.562 432.766 321.156 418.012 394.959Z" fill="#FFCD29"/>
<path d="M386.984 288.333L408.221 251.865L389.213 307.102L386.984 288.333Z" fill="#EDAA00"/>
<path d="M419.278 219.577C418.936 219.416 411.451 216.094 398.033 214.272C393.868 213.704 389.11 213.286 383.827 213.158C374.973 212.922 364.601 213.511 352.895 215.558L353.705 211.765C353.705 211.765 370.637 188.285 383.827 193.59C386.463 194.651 388.905 196.698 391.05 199.516H408.872C412.911 204.413 416.403 211.186 419.278 219.577Z" fill="#EDAA00"/>
<path d="M408.872 199.516L353.705 211.765L335.346 188.875C335.346 188.875 325.431 210.95 318.847 214.219C312.264 217.476 270.663 212.172 270.663 212.172C269.579 211.014 269.476 208.775 269.807 206.364H269.819C270.389 202.013 272.363 197.115 272.363 197.115L304.996 194.211C304.996 194.211 314.877 169.221 318.847 157.23C322.818 145.249 331.216 143.502 331.216 143.502C331.216 143.502 331.376 140.544 331.136 139.698C330.885 138.84 344.474 129.389 353.705 129.389L355.85 131.221C355.85 131.221 364.544 127.674 375.84 135.025C381.785 138.883 390.605 156.49 397.633 172.339V172.35C403.977 186.656 408.872 199.516 408.872 199.516Z" fill="#61648A"/>
<path opacity="0.36" d="M408.872 199.516L353.705 211.765L335.346 188.875C335.346 188.875 325.431 210.951 318.847 214.219C312.264 217.477 270.663 212.172 270.663 212.172C269.579 211.015 269.476 208.775 269.807 206.364H269.819C281.354 201.424 310.073 213.672 317.216 205.035C324.358 196.387 331.9 172.029 335.358 178.877C338.803 185.714 345.878 196.055 354.618 197.823C363.346 199.591 399.299 190.911 397.633 172.351C403.977 186.657 408.872 199.516 408.872 199.516Z" fill="#383952"/>
</svg>
